# Blender v3.0.1 OBJ File: ''
# www.blender.org
mtllib TestObj2.mtl
o Cube
v 1.000000 1.000000 -1.000000
v 1.000000 -1.000000 -1.000000
v 1.000000 1.000000 1.000000
v 1.000000 -1.000000 1.000000
v -1.000000 1.000000 -1.000000
v -1.000000 -1.000000 -1.000000
v -1.000000 1.000000 1.000000
v -1.000000 -1.000000 1.000000
v 0.633889 1.000000 -0.633889
v 1.000000 -1.000000 -1.000000
v 0.633889 1.000000 0.633889
v 1.000000 -1.000000 1.000000
v -0.633889 1.000000 -0.633889
v -1.000000 -1.000000 -1.000000
v -0.633889 1.000000 0.633889
v -1.000000 -1.000000 1.000000
v 1.000000 1.000000 1.000000
v -1.000000 1.000000 1.000000
v 1.000000 1.000000 -1.000000
v -1.000000 1.000000 -1.000000
v 0.633889 3.420470 0.633889
v -0.633889 3.420470 0.633889
v 0.633889 3.420470 -0.633889
v -0.633889 3.420470 -0.633889
v -1.000000 -1.000000 -1.000000
v -1.000000 -1.000000 1.000000
v 1.000000 -1.000000 -1.000000
v 1.000000 -1.000000 1.000000
v -2.012727 -1.000000 -2.012727
v -2.012727 -1.000000 2.012727
v 2.012727 -1.000000 -2.012727
v 2.012727 -1.000000 2.012727
v -2.012727 -6.480235 -2.012727
v -2.012727 -6.480235 2.012727
v 2.012727 -6.480235 -2.012727
v 2.012727 -6.480235 2.012727
v 0.633889 5.811548 0.633889
v -0.633889 5.811548 0.633889
v 0.633889 5.811548 -0.633889
v -0.633889 5.811548 -0.633889
v -4.847287 3.420470 0.633889
v -4.847287 3.420470 -0.633889
v -4.847287 5.811548 0.633889
v -4.847287 5.811548 -0.633889
v -0.633889 3.420470 -4.206282
v 0.633889 3.420470 -4.206282
v -0.633889 5.811548 -4.206282
v 0.633889 5.811548 -4.206282
v -0.633889 3.420470 -4.206282
v 0.633889 3.420470 -4.206282
v -0.633889 5.811548 -4.206282
v 0.633889 5.811548 -4.206282
v 4.539989 3.420470 -0.633889
v 4.539989 3.420470 0.633889
v 4.539989 5.811548 -0.633889
v 4.539989 5.811548 0.633889
v 0.633889 3.420470 4.186767
v -0.633889 3.420470 4.186767
v 0.633889 5.811548 4.186767
v -0.633889 5.811548 4.186767
v 0.633889 8.157246 0.633889
v -0.633889 8.157246 0.633889
v 0.633889 8.157246 4.186767
v -0.633889 8.157246 4.186767
v 0.633889 7.779233 -0.633889
v 0.633889 7.779233 0.633889
v 4.539989 7.779233 -0.633889
v 4.539989 7.779233 0.633889
v -0.633889 7.753545 0.633889
v -0.633889 7.753545 -0.633889
v 0.633889 7.753545 -0.633889
v -4.847287 7.753545 0.633889
v -4.847287 7.753545 -0.633889
v -0.633889 7.753545 -4.206282
v 0.633889 7.753545 -4.206282
v -2.761032 -8.122494 -2.761032
v -2.761032 -8.122494 2.761032
v 2.761032 -8.122494 -2.761032
v 2.761032 -8.122494 2.761032
vt 0.625000 0.500000
vt 0.625000 0.750000
vt 0.875000 0.750000
vt 0.875000 0.500000
vt 0.375000 0.750000
vt 0.375000 1.000000
vt 0.625000 1.000000
vt 0.375000 0.000000
vt 0.375000 0.250000
vt 0.625000 0.250000
vt 0.625000 0.000000
vt 0.125000 0.500000
vt 0.125000 0.750000
vt 0.375000 0.500000
vt 0.375000 0.750000
vt 0.625000 0.750000
vt 0.625000 1.000000
vt 0.375000 1.000000
vt 0.375000 0.000000
vt 0.625000 0.000000
vt 0.625000 0.250000
vt 0.375000 0.250000
vt 0.375000 0.500000
vt 0.375000 0.500000
vt 0.375000 0.250000
vt 0.625000 0.500000
vt 0.670764 0.704236
vt 0.829236 0.704236
vt 0.875000 0.750000
vt 0.670764 0.545764
vt 0.829236 0.545764
vt 0.875000 0.500000
vt 0.375000 0.750000
vt 0.375000 1.000000
vt 0.375000 1.000000
vt 0.375000 0.750000
vt 0.375000 0.000000
vt 0.375000 0.000000
vt 0.375000 0.250000
vt 0.375000 0.250000
vt 0.375000 0.000000
vt 0.375000 0.500000
vt 0.375000 0.750000
vt 0.375000 1.000000
vt 0.375000 1.000000
vt 0.375000 0.750000
vt 0.375000 0.500000
vt 0.670764 0.545764
vt 0.829236 0.545764
vt 0.829236 0.704236
vt 0.670764 0.704236
vt 0.829236 0.545764
vt 0.829236 0.545764
vt 0.829236 0.545764
vt 0.829236 0.545764
vt 0.670764 0.545764
vt 0.670764 0.545764
vt 0.670764 0.545764
vt 0.670764 0.545764
vt 0.670764 0.704236
vt 0.670764 0.704236
vt 0.670764 0.704236
vt 0.125000 0.500000
vt 0.375000 0.500000
vt 0.125000 0.750000
vt 0.375000 0.250000
vt 0.375000 0.000000
vt 0.670764 0.545764
vt 0.829236 0.545764
vt 0.829236 0.545764
vt 0.829236 0.545764
vt 0.829236 0.704236
vt 0.829236 0.704236
vt 0.670764 0.704236
vt 0.670764 0.545764
vt 0.670764 0.545764
vt 0.829236 0.704236
vt 0.829236 0.704236
vt 0.829236 0.704236
vt 0.829236 0.545764
vt 0.829236 0.545764
vt 0.829236 0.545764
vt 0.670764 0.704236
vt 0.670764 0.704236
vt 0.670764 0.545764
vt 0.670764 0.704236
vt 0.829236 0.704236
vt 0.829236 0.704236
vt 0.829236 0.704236
vt 0.670764 0.704236
vt 0.670764 0.545764
vt 0.670764 0.704236
vt 0.829236 0.704236
vt 0.670764 0.545764
vt 0.670764 0.545764
vn 0.0000 -1.0000 0.0000
vn 0.0000 0.0000 -1.0000
vn 1.0000 0.0000 0.0000
vn 0.0000 1.0000 0.0000
vn -1.0000 0.0000 0.0000
vn 0.0000 0.0000 1.0000
vn 0.0000 0.4146 0.9100
vn -0.9100 0.4146 0.0000
vn 0.9100 0.4146 0.0000
vn 0.0000 0.4146 -0.9100
usemtl BaseMat1
s off
f 1/1/1 3/2/1 7/3/1 5/4/1
f 4/5/2 8/6/2 7/7/2 3/2/2
f 8/8/3 6/9/3 5/10/3 7/11/3
f 6/12/4 8/13/4 4/5/4 2/14/4
f 2/14/5 4/5/5 3/2/5 1/1/5
f 6/9/6 2/14/6 1/1/6 5/10/6
f 12/15/6 17/16/6 18/17/6 16/18/6
f 16/19/5 18/20/5 20/21/5 14/22/5
f 14/22/6 10/23/6 27/24/6 25/25/6
f 10/23/3 19/26/3 17/16/3 12/15/3
f 14/22/2 20/21/2 19/26/2 10/23/2
f 11/27/4 15/28/4 18/29/4 17/16/4
f 9/30/4 11/27/4 17/16/4 19/26/4
f 15/28/4 13/31/4 20/32/4 18/29/4
f 13/31/4 9/30/4 19/26/4 20/32/4
f 28/33/4 26/34/4 30/35/4 32/36/4
f 12/15/6 16/18/6 26/34/6 28/33/6
f 16/19/6 14/22/6 25/25/6 26/37/6
f 10/23/6 12/15/6 28/33/6 27/24/6
f 30/38/5 29/39/5 33/40/5 34/41/5
f 26/37/4 25/25/4 29/39/4 30/38/4
f 27/24/4 28/33/4 32/36/4 31/42/4
f 25/25/4 27/24/4 31/42/4 29/39/4
f 36/43/7 34/44/7 77/45/7 79/46/7
f 31/42/3 32/36/3 36/43/3 35/47/3
f 29/39/2 31/42/2 35/47/2 33/40/2
f 32/36/6 30/35/6 34/44/6 36/43/6
f 39/48/4 40/49/4 38/50/4 37/51/4
f 45/52/6 47/53/6 51/54/6 49/55/6
f 46/56/6 45/52/6 49/55/6 50/57/6
f 48/58/6 46/56/6 50/57/6 52/59/6
f 47/53/6 48/58/6 52/59/6 51/54/6
f 21/60/3 37/51/3 59/61/3 57/62/3
f 76/63/1 78/64/1 79/46/1 77/65/1
f 34/41/8 33/40/8 76/66/8 77/67/8
f 35/47/9 36/43/9 79/46/9 78/64/9
f 33/40/10 35/47/10 78/64/10 76/66/10
usemtl BaseMat2
f 11/27/3 9/30/3 23/68/3 21/60/3
f 40/49/2 24/69/2 42/70/2 44/71/2
f 13/31/5 15/28/5 22/72/5 24/69/5
f 15/28/6 11/27/6 21/60/6 22/72/6
f 9/30/2 13/31/2 24/69/2 23/68/2
f 37/51/2 38/50/2 62/73/2 61/74/2
f 39/48/3 23/68/3 46/56/3 48/58/3
f 23/68/2 39/48/2 55/75/2 53/76/2
f 42/70/5 41/77/5 43/78/5 44/71/5
f 24/69/1 22/72/1 41/77/1 42/70/1
f 22/72/6 38/50/6 43/78/6 41/77/6
f 44/71/5 43/78/5 72/79/5 73/80/5
f 24/69/5 40/49/5 47/53/5 45/52/5
f 47/53/5 40/49/5 70/81/5 74/82/5
f 23/68/1 24/69/1 45/52/1 46/56/1
f 50/57/2 49/55/2 51/54/2 52/59/2
f 54/83/3 53/76/3 55/75/3 56/84/3
f 56/84/3 55/75/3 67/85/3 68/86/3
f 37/51/6 21/60/6 54/83/6 56/84/6
f 21/60/1 23/68/1 53/76/1 54/83/1
f 58/87/6 57/62/6 59/61/6 60/88/6
f 22/72/1 21/60/1 57/62/1 58/87/1
f 38/50/5 22/72/5 58/87/5 60/88/5
f 61/74/4 62/73/4 64/89/4 63/90/4
f 38/50/5 60/88/5 64/89/5 62/73/5
f 59/61/3 37/51/3 61/74/3 63/90/3
f 60/88/6 59/61/6 63/90/6 64/89/6
f 65/91/4 66/92/4 68/86/4 67/85/4
f 37/51/6 56/84/6 68/86/6 66/92/6
f 55/75/2 39/48/2 65/91/2 67/85/2
f 39/48/5 37/51/5 66/92/5 65/91/5
f 69/93/4 70/81/4 73/80/4 72/79/4
f 70/81/4 71/94/4 75/95/4 74/82/4
f 40/49/6 39/48/6 71/94/6 70/81/6
f 39/48/3 48/58/3 75/95/3 71/94/3
f 48/58/2 47/53/2 74/82/2 75/95/2
f 43/78/6 38/50/6 69/93/6 72/79/6
f 38/50/3 40/49/3 70/81/3 69/93/3
f 40/49/2 44/71/2 73/80/2 70/81/2
