# Blender v3.0.1 OBJ File: ''
# www.blender.org
mtllib Ground.mtl
o Plane
v -1.000000 0.002217 0.957261
v 1.000000 0.002532 0.934936
v -1.000000 0.002217 -0.957261
v 1.000000 0.002532 -0.934936
v -1.000000 0.186085 0.957261
v 1.000000 0.184662 0.934936
v -1.000000 0.186085 -0.957261
v 1.000000 0.184662 -0.934936
v -0.777778 0.000000 1.000000
v -0.555556 0.000000 1.000000
v -0.333333 0.000000 1.000000
v -0.111111 0.000668 1.000000
v 0.111111 0.000000 1.000000
v 0.333333 0.000000 1.000000
v 0.555556 0.000000 1.000000
v 0.777778 0.000000 1.000000
v 0.777778 0.000000 -1.000000
v 0.555556 0.000000 -1.000000
v 0.333333 0.000000 -1.000000
v 0.111111 0.000000 -1.000000
v -0.111111 0.000668 -1.000000
v -0.333333 0.000000 -1.000000
v -0.555556 0.000000 -1.000000
v -0.777778 0.000000 -1.000000
v -0.777778 0.187194 1.000000
v -0.555556 0.129600 1.000000
v -0.333333 0.187194 1.000000
v -0.111111 0.129600 1.000000
v 0.111111 0.187194 1.000000
v 0.333333 0.129600 1.000000
v 0.555556 0.187194 1.000000
v 0.777778 0.129600 1.000000
v 0.777778 0.129600 -1.000000
v 0.555556 0.187194 -1.000000
v 0.333333 0.129600 -1.000000
v 0.111111 0.187194 -1.000000
v -0.111111 0.129600 -1.000000
v -0.333333 0.187194 -1.000000
v -0.555556 0.129600 -1.000000
v -0.777778 0.187194 -1.000000
v -1.000000 0.186085 -0.957261
v -1.000000 0.186085 0.957261
vt 0.888889 0.000000
vt 0.888889 1.000000
vt 1.000000 1.000000
vt 1.000000 0.000000
vt 0.888889 0.000000
vt 1.000000 0.000000
vt 1.000000 1.000000
vt 0.888889 1.000000
vt 0.000000 1.000000
vt 0.000000 0.000000
vt 0.000000 0.000000
vt 0.000000 1.000000
vt 0.111111 1.000000
vt 0.000000 1.000000
vt 0.111111 1.000000
vt 0.111111 0.000000
vt 0.111111 0.000000
vt 0.000000 0.000000
vt 0.222222 0.000000
vt 0.222222 0.000000
vt 0.333333 0.000000
vt 0.333333 0.000000
vt 0.444444 0.000000
vt 0.444444 0.000000
vt 0.555556 0.000000
vt 0.555556 0.000000
vt 0.666667 0.000000
vt 0.666667 0.000000
vt 0.777778 0.000000
vt 0.777778 0.000000
vt 0.777778 1.000000
vt 0.777778 1.000000
vt 0.666667 1.000000
vt 0.666667 1.000000
vt 0.555556 1.000000
vt 0.555556 1.000000
vt 0.444444 1.000000
vt 0.444444 1.000000
vt 0.333333 1.000000
vt 0.333333 1.000000
vt 0.222222 1.000000
vt 0.222222 1.000000
vn 0.0114 -0.9999 0.0000
vn -0.2405 0.9706 0.0000
vn 1.0000 0.0000 0.0000
vn -1.0000 0.0000 0.0000
vn -0.1889 0.0000 -0.9820
vn 0.2810 0.0000 0.9597
vn -0.1889 0.0000 0.9820
vn 0.0000 0.0000 1.0000
vn 0.2810 0.0000 -0.9597
vn 0.0000 0.0000 -1.0000
vn -0.0050 1.0000 0.0000
vn 0.2509 0.9680 0.0000
vn -0.2509 0.9680 0.0000
vn -0.0100 -1.0000 0.0000
vn 0.0000 -1.0000 0.0000
vn 0.0030 -1.0000 -0.0000
vn -0.0030 -1.0000 0.0000
usemtl None
s off
f 16/1/1 17/2/1 4/3/1 2/4/1
f 32/5/2 6/6/2 8/7/2 33/8/2
f 2/4/3 4/3/3 8/7/3 6/6/3
f 3/9/4 1/10/4 42/11/4 41/12/4
f 24/13/5 3/9/5 7/14/5 40/15/5
f 16/1/6 2/4/6 6/6/6 32/5/6
f 1/10/7 9/16/7 25/17/7 5/18/7
f 9/16/8 10/19/8 26/20/8 25/17/8
f 10/19/8 11/21/8 27/22/8 26/20/8
f 11/21/8 12/23/8 28/24/8 27/22/8
f 12/23/8 13/25/8 29/26/8 28/24/8
f 13/25/8 14/27/8 30/28/8 29/26/8
f 14/27/8 15/29/8 31/30/8 30/28/8
f 15/29/8 16/1/8 32/5/8 31/30/8
f 4/3/9 17/2/9 33/8/9 8/7/9
f 17/2/10 18/31/10 34/32/10 33/8/10
f 18/31/10 19/33/10 35/34/10 34/32/10
f 19/33/10 20/35/10 36/36/10 35/34/10
f 20/35/10 21/37/10 37/38/10 36/36/10
f 21/37/10 22/39/10 38/40/10 37/38/10
f 22/39/10 23/41/10 39/42/10 38/40/10
f 23/41/10 24/13/10 40/15/10 39/42/10
f 5/18/11 25/17/11 40/15/11 7/14/11
f 25/17/12 26/20/12 39/42/12 40/15/12
f 26/20/13 27/22/13 38/40/13 39/42/13
f 27/22/12 28/24/12 37/38/12 38/40/12
f 28/24/13 29/26/13 36/36/13 37/38/13
f 29/26/12 30/28/12 35/34/12 36/36/12
f 30/28/13 31/30/13 34/32/13 35/34/13
f 31/30/12 32/5/12 33/8/12 34/32/12
f 1/10/14 3/9/14 24/13/14 9/16/14
f 9/16/15 24/13/15 23/41/15 10/19/15
f 10/19/15 23/41/15 22/39/15 11/21/15
f 11/21/16 22/39/16 21/37/16 12/23/16
f 12/23/17 21/37/17 20/35/17 13/25/17
f 13/25/15 20/35/15 19/33/15 14/27/15
f 14/27/15 19/33/15 18/31/15 15/29/15
f 15/29/15 18/31/15 17/2/15 16/1/15
