# Blender v3.0.1 OBJ File: ''
# www.blender.org
mtllib Rock1.mtl
o Icosphere.001_Icosphere.002
v 0.723600 -0.447215 1.155511
v -0.276385 -0.447215 -1.869672
v 0.723600 -0.447215 -1.155511
v -0.723600 0.447215 -1.155511
v 0.030549 0.049431 1.869672
v 0.475275 0.049435 1.552063
v 0.551248 0.447215 1.038166
v 0.153467 0.693059 1.038161
v -0.168346 0.447215 1.552058
v 0.635885 -0.271785 -1.295583
v -0.167971 -0.271791 -1.869672
v -0.527480 0.447215 -1.295574
v 0.054206 0.891585 -0.366689
v 0.773209 0.447215 -0.366698
v 0.251531 0.026033 -1.701525
v 0.220295 0.356455 -1.490228
v -0.089210 0.236623 -1.701522
v -0.024136 0.577368 -1.261309
v 0.356827 0.577368 -0.989247
v 0.527197 0.236625 -1.261314
v -0.460116 -0.715633 0.000000
v -0.142181 -0.715630 -0.961817
v 0.372242 -0.715631 -0.594430
v 0.372242 -0.715631 0.594430
v -0.142181 -0.715630 0.961817
v -0.176409 -0.833421 -0.281710
v 0.000001 -0.870127 0.000000
v 0.067383 -0.833420 -0.455814
v 0.218054 -0.833420 0.000000
v 0.067383 -0.833420 0.455814
v -0.176409 -0.833421 0.281710
v 0.054193 0.891612 -0.366600
v -0.343584 0.737524 -0.548666
v -0.343584 0.737524 0.548666
v 0.131235 0.737523 0.887768
v 0.424692 0.737526 0.000000
v 0.846323 0.195357 0.325374
v 0.846323 0.195357 -0.325374
v 0.773238 0.447215 -0.366609
v 0.642569 0.602871 0.000000
v 0.720394 0.447215 0.526472
v -0.623386 -0.447215 0.819937
v -0.819511 -0.054967 0.506743
v -0.819511 -0.054967 -0.506743
v -0.623386 -0.447215 -0.819937
v -0.502179 -0.689636 0.000000
v -0.793098 -0.332328 0.388576
v -0.795397 -0.397701 -0.000000
v -0.850541 -0.217442 0.000000
v -0.793098 -0.332328 -0.388576
v -0.700153 -0.518219 -0.240154
v -0.700153 -0.518219 0.240154
v -0.508799 0.017614 1.498528
v -0.243292 0.447215 1.498533
v -0.376045 0.712725 0.600503
v -0.723600 0.447215 0.045483
v -0.805649 0.017611 0.600508
v -0.017702 -0.447215 1.684928
v -0.133392 -0.215840 1.869672
v -0.392072 -0.215842 1.684931
v -0.436262 -0.447215 1.386017
v -0.204888 -0.590213 1.386014
vt 0.272728 0.157461
vt 0.316871 0.081003
vt 0.363637 0.047450
vt 0.410403 0.081003
vt 0.454546 0.157461
vt 0.043665 0.390552
vt 0.087330 0.314921
vt 0.100957 0.314921
vt 0.141388 0.384950
vt 0.134076 0.397615
vt 0.047744 0.397616
vt 0.862325 0.081002
vt 0.909091 0.047450
vt 0.955857 0.081003
vt 0.976483 0.116728
vt 0.952966 0.157461
vt 0.897918 0.157461
vt 0.853213 0.137236
vt 0.858050 0.088407
vt 0.498689 0.081003
vt 0.545455 0.047450
vt 0.592221 0.081003
vt 0.636364 0.157461
vt 0.472377 0.188345
vt 0.481242 0.277848
vt 0.399297 0.314921
vt 0.399288 0.314921
vt 0.389236 0.270583
vt 0.389236 0.359260
vt 0.481242 0.351995
vt 0.472376 0.441500
vt 0.472371 0.441507
vt 0.411380 0.397616
vt 0.680507 0.081003
vt 0.727273 0.047450
vt 0.774039 0.081002
vt 0.778314 0.088407
vt 0.783151 0.137236
vt 0.738446 0.157461
vt 0.727273 0.314921
vt 0.691614 0.314921
vt 0.609668 0.277847
vt 0.618534 0.188343
vt 0.618535 0.441500
vt 0.609669 0.351995
vt 0.679530 0.397616
vt 0.618539 0.441507
vt 0.783151 0.177686
vt 0.778314 0.226514
vt 0.821760 0.314921
vt 0.865426 0.390552
vt 0.861348 0.397616
vt 0.775016 0.397616
vt 0.067393 0.198193
vt 0.114427 0.198194
vt 0.141389 0.244893
vt 0.043665 0.239292
vt 0.338038 0.270583
vt 0.545455 0.240774
vt 0.222249 0.244894
vt 0.262680 0.314921
vt 0.222250 0.384950
vt 0.818182 0.197911
vt 0.858050 0.226514
vt 0.865426 0.239291
vt 0.543610 0.311725
vt 0.537279 0.384349
vt 0.551358 0.010225
vt 0.763133 0.026746
vt 0.581316 0.026746
vt 0.399498 0.026746
vt 0.228585 0.081003
vt 0.181819 0.047450
vt 0.217680 0.026746
vt 0.944951 0.026746
vt 0.135053 0.081003
vt 0.137944 0.157461
vt 0.114427 0.116728
vt 0.315894 0.397616
vt 0.312440 0.314921
vt 0.338038 0.359260
vt 0.229562 0.397615
vt 0.853213 0.177686
vt 0.819189 0.159204
vt 0.822642 0.119585
vt 0.976483 0.198193
vt 0.952755 0.239292
vn 0.6071 -0.7947 0.0000
vn -0.2187 0.9265 0.3063
vn -0.5180 -0.8381 0.1712
vn 0.2187 -0.9265 -0.3063
vn 0.9265 0.2187 -0.3063
vn 0.5180 0.8381 -0.1712
vn -0.5180 -0.8381 -0.1712
vn -0.5470 0.3380 -0.7659
vn -0.2187 0.9265 -0.3063
vn -0.9265 -0.2187 -0.3063
vn -0.6071 0.7947 -0.0000
vn -0.5470 0.3380 0.7659
vn 0.9822 -0.1876 0.0000
vn 0.5470 -0.3380 -0.7659
vn 0.4234 0.6850 0.5928
vn -0.9822 0.1876 -0.0000
vn 0.7373 0.3002 -0.6053
vn 0.2402 0.3887 -0.8895
vn -0.0612 0.7937 -0.6053
vn 0.2719 0.8838 -0.3807
vn 0.6689 0.6385 -0.3807
vn -0.3183 -0.9480 0.0000
vn -0.1021 -0.9844 -0.1430
vn 0.2612 -0.9614 -0.0863
vn 0.2612 -0.9614 0.0863
vn -0.1021 -0.9844 0.1430
vn 0.2187 -0.9265 0.3063
vn -0.0583 0.9950 0.0817
vn 0.5180 0.8381 0.1712
vn 0.9053 0.4232 0.0369
vn 0.9265 0.2187 0.3063
vn -0.8348 -0.5316 0.1430
vn -0.9767 -0.1964 0.0863
vn -0.9767 -0.1964 -0.0863
vn -0.8348 -0.5316 -0.1430
vn -0.7056 -0.7087 0.0000
vn -0.9265 -0.2187 0.3063
vn -0.8189 0.5061 0.2707
vn -0.4234 -0.6850 0.5928
vn 0.5470 -0.3380 0.7659
usemtl Rock.001
s off
f 1/1/1 24/2/1 29/3/1 23/4/1 3/5/1
f 55/6/2 54/7/2 9/8/2 8/9/2 35/10/2 34/11/2
f 21/12/3 31/13/3 25/14/3 62/15/3 61/16/3 42/17/3 52/18/3 46/19/3
f 23/20/4 28/21/4 22/22/4 2/23/4 3/5/4
f 3/5/5 10/24/5 20/25/5 14/26/5 39/27/5 38/28/5
f 40/29/6 39/27/6 14/26/6 19/30/6 13/31/6 32/32/6 36/33/6
f 22/34/7 26/35/7 21/36/7 46/37/7 51/38/7 45/39/7 2/23/7
f 2/23/8 4/40/8 12/41/8 17/42/8 11/43/8
f 13/44/9 18/45/9 12/41/9 4/40/9 33/46/9 32/47/9
f 2/23/10 45/39/10 50/48/10 44/49/10 4/40/10
f 4/40/11 56/50/11 55/51/11 34/52/11 33/53/11
f 60/54/12 59/55/12 5/56/12 9/8/12 54/7/12 53/57/12
f 1/1/13 3/5/13 38/28/13 37/58/13
f 3/5/14 2/23/14 11/43/14 15/59/14 10/24/14
f 5/56/15 6/60/15 7/61/15 8/62/15 9/8/15
f 44/49/16 49/63/16 43/64/16 57/65/16 56/50/16 4/40/16
f 10/24/17 15/59/17 16/66/17 20/25/17
f 11/43/18 17/42/18 16/66/18 15/59/18
f 12/41/19 18/45/19 16/66/19 17/42/19
f 13/31/20 19/30/20 16/66/20 18/67/20
f 14/26/21 20/25/21 16/66/21 19/30/21
f 21/36/22 26/35/22 27/68/22 31/69/22
f 22/22/23 28/21/23 27/68/23 26/70/23
f 23/4/24 29/3/24 27/68/24 28/71/24
f 24/72/25 30/73/25 27/68/25 29/74/25
f 25/14/26 31/13/26 27/68/26 30/75/26
f 25/76/27 30/73/27 24/72/27 1/1/27 58/77/27 62/78/27
f 32/32/28 33/46/28 34/52/28 35/10/28 36/79/28
f 8/62/29 7/61/29 41/80/29 40/81/29 36/79/29 35/82/29
f 37/58/30 38/28/30 39/27/30 40/29/30 41/80/30
f 1/1/31 37/58/31 41/80/31 7/61/31 6/60/31
f 42/17/32 47/83/32 48/84/32 52/18/32
f 43/64/33 49/63/33 48/84/33 47/83/33
f 44/49/34 50/48/34 48/84/34 49/63/34
f 45/39/35 51/38/35 48/84/35 50/48/35
f 46/19/36 52/18/36 48/84/36 51/85/36
f 43/64/37 47/83/37 42/17/37 61/16/37 60/86/37 53/87/37 57/65/37
f 53/87/38 54/7/38 55/6/38 56/50/38 57/65/38
f 58/77/39 59/55/39 60/54/39 61/16/39 62/15/39
f 59/55/40 58/77/40 1/1/40 6/60/40 5/56/40
